<?xml version="1.0" encoding="utf-8"?>
<!-- Generator: Adobe Illustrator 19.0.0, SVG Export Plug-In . SVG Version: 6.00 Build 0)  -->
<svg version="1.1" id="Layer_1" xmlns="http://www.w3.org/2000/svg" xmlns:xlink="http://www.w3.org/1999/xlink" x="0px" y="0px"
	 viewBox="0 0 300 400" style="enable-background:new 0 0 300 400;" xml:space="preserve">
<style type="text/css">
	.st0{fill:#FFFFFF;stroke:#D74826;stroke-width:2;stroke-miterlimit:10;}
	.st1{fill:none;stroke:#FFFFFF;stroke-width:4.85;stroke-miterlimit:10;}
	.st2{fill:none;stroke:#FDFDFE;stroke-width:4;stroke-miterlimit:10;}
	.st3{fill:none;stroke:#FFFFFF;stroke-width:3;stroke-miterlimit:10;}
	.st4{fill:#D74826;stroke:#FFFFFF;stroke-width:6;stroke-miterlimit:10;}
	.st5{fill:#FFFFFF;}
	.st6{font-family:'SourceSansPro-BoldIt';}
	.st7{font-size:332.2123px;}
</style>
<ellipse id="XMLID_14_" class="st0" cx="151" cy="202.6" rx="149" ry="197.4"/>
<line id="XMLID_9_" class="st1" x1="119.9" y1="77" x2="98.5" y2="72.1"/>
<line id="XMLID_13_" class="st2" x1="227.3" y1="84" x2="238.9" y2="106.9"/>
<ellipse id="XMLID_1_" class="st3" cx="151" cy="199.1" rx="137.4" ry="181.4"/>
<path id="XMLID_19_" class="st4" d="M277.3,202.6c0,54.3-20.4,102.4-51.7,132.1c-2.6,2.5-5.3,4.8-8.1,7.1c-2.8,2.2-5.6,4.3-8.5,6.3
	c-2.9,3-5.9,8.9-8.9,8.4c-1.5,0.5-3,3.3-4.6,4.7c-1.5,4.8-3.1-2.8-4.7-3.2c-1.6,5-3.2,6.2-4.7,6.1c-1.6-0.1-3.2-7.3-4.8-2.1
	c-0.8-10.2-1.6-15.2-2.4-7.8c-0.8,13.8-1.6,3.1-2.5,3.7c-0.4,5.3-0.8-7.2-1.2,2.2c-0.4,7.7-0.8-16.3-1.2-6.6
	c-0.2,2.6-0.4-11.1-0.6-6.6c-0.2-1.4-0.4,4.4-0.6,5.9c-0.4-10-0.8,12.8-1.2,11.4c-1.7-4.8-3.3,6.6-5-2.4c-1.7-15.8-3.4,5.7-5.1,4.4
	c-1.7-3.6-3.4-6-5.2,7.1c-1.7-3.3-3.5-3-5.2-7c-0.9,0.7-1.7-6-2.6-9c-0.9,11.3-1.7-1.8-2.6,2.7c-0.9-0.5-1.7,7.6-2.6,6.1
	c-0.9-1.3-1.7,12.8-2.6-7.2c-1.7,7.6-3.4-4.4-5.1-2.5c-1.7-26.6-3.4,2.4-5,7.8c-1.7-5.5-3.3-0.1-5,5.2c-1.6-15.9-3.3,7.5-4.9-9.5
	c-1.6-16.5-3.2-24.7-4.8-4.5c-0.8,3.3-1.6,13.2-2.4,0.2c-0.8,11.8-1.6,3.9-2.4,2.5c-1.6-15-3.1-2.7-4.7,2.6
	c-1.5,6.4-3.1,11.5-4.6-7.1c-1.5-9.7-3-15.4-4.5-7.4c-1.5,6.2-2.9,8.6-4.4,2c-2.5-1.7-5-3.5-7.5-5.4c-2.4-1.9-4.8-3.9-7.1-6
	C45.9,307,24.6,258,24.6,202.6c0-90.4,56.6-163.8,126.3-163.8C220.8,38.9,277.3,112.2,277.3,202.6z"/>
<text id="XMLID_2_" transform="matrix(0.7781 0 0 1 67.0002 314.3487)" class="st5 st6 st7">K</text>
</svg>
